<svg viewBox="0 0 25 25" fill="none" xmlns="http://www.w3.org/2000/svg">
<path d="M24.2188 14.0625H0.78125C0.351562 14.0625 0 14.4141 0 14.8438V16.4062C0 16.8359 0.351562 17.1875 0.78125 17.1875H24.2188C24.6484 17.1875 25 16.8359 25 16.4062V14.8438C25 14.4141 24.6484 14.0625 24.2188 14.0625ZM24.2188 7.8125H0.78125C0.351562 7.8125 0 8.16406 0 8.59375V10.1562C0 10.5859 0.351562 10.9375 0.78125 10.9375H24.2188C24.6484 10.9375 25 10.5859 25 10.1562V8.59375C25 8.16406 24.6484 7.8125 24.2188 7.8125Z"/>
</svg>
